<?xml version="1.0" standalone="no"?>
<!DOCTYPE svg PUBLIC "-//W3C//DTD SVG 20010904//EN"
 "http://www.w3.org/TR/2001/REC-SVG-20010904/DTD/svg10.dtd">
<svg version="1.0" xmlns="http://www.w3.org/2000/svg"
 width="1844.000000pt" height="449.000000pt" viewBox="0 0 1844.000000 449.000000"
 preserveAspectRatio="xMidYMid meet">

<g transform="translate(0.000000,449.000000) scale(0.100000,-0.100000)"
fill="#000000" stroke="none">
<path d="M570 4336 c-34 -13 -35 -14 -35 -67 0 -52 -1 -54 -41 -76 l-41 -23
-39 30 c-21 16 -44 30 -49 30 -6 0 -28 -18 -50 -40 l-39 -40 23 -49 23 -49
-23 -41 c-23 -41 -24 -42 -64 -36 -22 4 -47 8 -56 11 -12 3 -22 -10 -38 -47
-11 -28 -21 -55 -21 -60 0 -4 20 -22 45 -39 40 -27 45 -35 45 -69 0 -48 -14
-64 -74 -87 l-48 -18 5 -54 c3 -30 8 -56 10 -58 2 -2 30 -8 63 -12 l58 -7 15
-47 14 -46 -41 -48 -41 -48 22 -39 c33 -59 38 -61 100 -33 l56 24 36 -31 37
-32 -15 -65 c-9 -35 -13 -68 -11 -72 3 -5 24 -18 47 -29 l41 -21 49 53 c27 30
46 47 44 38 -3 -9 -16 -50 -29 -90 -31 -99 -33 -337 -4 -439 26 -92 97 -233
156 -313 44 -59 55 -68 78 -65 40 4 34 32 -25 113 -132 180 -190 380 -164 565
12 86 51 212 66 211 6 0 17 -28 25 -63 l15 -63 52 -3 c50 -3 51 -2 61 30 28
90 34 137 22 173 -11 35 -12 35 -69 35 -206 0 -372 134 -426 345 -19 75 -19
125 0 200 35 133 124 243 243 302 52 26 67 28 167 28 104 0 114 -2 176 -32
281 -139 335 -519 105 -731 -24 -22 -57 -47 -72 -55 -28 -15 -29 -14 -52 22
-13 20 -39 47 -58 60 -58 40 -131 14 -171 -62 -8 -16 -13 -30 -11 -32 2 -1 20
-5 40 -8 30 -5 40 -2 48 12 24 45 69 32 100 -29 14 -28 20 -59 20 -109 0 -75
7 -86 46 -77 18 5 24 13 24 34 l1 27 34 -38 33 -38 50 25 49 25 -15 66 -16 65
33 34 33 34 60 -25 c67 -27 65 -28 104 43 l17 32 -42 49 -42 50 20 45 c18 44
21 45 72 51 29 4 56 10 59 14 4 5 10 31 13 59 l6 52 -60 21 c-42 16 -59 27
-59 40 0 10 -2 31 -6 47 -5 26 0 33 45 63 l49 33 -13 39 c-21 58 -34 79 -48
74 -6 -2 -31 -6 -53 -9 -40 -6 -43 -4 -68 35 l-27 41 26 50 c25 49 26 51 8 70
-10 11 -31 29 -46 40 l-28 20 -44 -31 -45 -32 -40 23 c-39 23 -40 24 -40 79
l0 57 -44 11 c-68 17 -75 15 -98 -34 -22 -44 -23 -45 -70 -45 -47 0 -49 1 -70
45 -24 50 -42 55 -108 31z"/>
<path d="M2590 2945 l0 -45 -185 0 -185 0 0 -480 0 -480 45 -61 c25 -34 46
-66 47 -73 2 -6 5 207 8 474 l5 485 130 0 130 0 3 -943 2 -944 28 6 c15 3 191
35 392 71 201 36 389 70 418 76 l52 10 -2 897 -3 897 -425 77 c-234 42 -433
77 -442 77 -15 1 -18 -8 -18 -44z m212 -1031 c14 -31 2 -71 -29 -91 -20 -14
-24 -13 -48 11 -32 32 -32 70 0 102 21 21 28 23 45 14 12 -6 26 -22 32 -36z"/>
<path d="M793 2935 c-15 -40 91 -247 168 -330 81 -86 135 -113 262 -130 141
-18 207 -53 267 -140 86 -126 92 -290 15 -407 -31 -46 -30 -82 2 -86 46 -7
123 163 123 272 0 114 -51 235 -132 317 -66 66 -135 97 -243 110 -49 5 -108
18 -131 29 -94 41 -189 161 -249 313 -23 57 -31 67 -51 67 -14 0 -27 -7 -31
-15z"/>
<path d="M10080 1810 l0 -930 65 0 65 0 0 428 0 429 31 42 c126 175 337 264
543 231 122 -19 194 -70 240 -170 20 -43 21 -63 24 -502 l3 -458 69 0 70 0 0
438 c0 476 -3 504 -57 605 -37 66 -121 141 -187 166 -133 50 -298 52 -442 7
-96 -31 -161 -70 -236 -144 l-58 -56 0 422 0 422 -65 0 -65 0 0 -930z"/>
<path d="M17140 1810 l0 -930 65 0 65 0 0 428 0 429 31 42 c126 175 337 264
543 231 122 -19 194 -70 240 -170 20 -43 21 -63 24 -502 l3 -458 69 0 70 0 0
438 c0 476 -3 504 -57 605 -37 66 -121 141 -187 166 -133 50 -298 52 -442 7
-96 -31 -161 -70 -236 -144 l-58 -56 0 422 0 422 -65 0 -65 0 0 -930z"/>
<path d="M5380 2670 c-362 -51 -645 -301 -741 -655 -19 -67 -22 -107 -22 -250
-1 -145 3 -182 21 -250 75 -269 259 -470 522 -565 172 -63 165 -63 763 -67
l547 -4 0 55 0 56 -257 0 -258 0 75 41 c145 79 235 163 310 289 123 206 146
521 57 778 -49 140 -154 289 -270 382 -83 67 -243 145 -347 170 -98 24 -300
34 -400 20z m365 -140 c219 -56 383 -185 485 -382 65 -124 83 -207 84 -383 1
-174 -11 -233 -75 -365 -34 -70 -58 -101 -133 -175 -103 -103 -199 -158 -341
-196 -114 -31 -355 -32 -467 -1 -276 75 -460 253 -530 511 -30 110 -30 333 0
446 37 139 94 237 197 341 126 127 261 196 435 223 91 14 251 5 345 -19z"/>
<path d="M6770 1760 l0 -880 70 0 70 0 0 400 0 400 232 -2 231 -3 223 -395
223 -395 70 -3 c39 -2 71 0 71 3 0 3 -99 181 -221 396 -121 215 -219 392 -217
395 3 2 39 13 80 23 104 27 172 63 235 127 103 102 147 253 125 422 -21 160
-100 277 -226 336 -109 51 -164 56 -580 56 l-386 0 0 -880z m815 748 c111 -33
176 -85 217 -173 20 -43 23 -66 23 -170 0 -111 -2 -124 -28 -177 -34 -69 -80
-111 -167 -152 l-65 -31 -327 -3 -328 -3 0 367 0 366 313 -5 c229 -4 325 -9
362 -19z"/>
<path d="M8490 2585 l0 -55 290 0 290 0 0 -825 0 -825 70 0 70 0 0 825 0 825
295 0 295 0 0 55 0 55 -655 0 -655 0 0 -55z"/>
<path d="M634 2136 c-13 -35 2 -48 82 -75 325 -109 524 -420 564 -881 6 -74
13 -141 15 -148 3 -7 15 -12 27 -10 22 3 23 6 22 118 -3 337 -139 668 -342
839 -71 58 -193 127 -271 151 -75 24 -90 25 -97 6z"/>
<path d="M1734 2136 c-13 -35 2 -48 82 -75 139 -47 251 -123 346 -236 141
-166 218 -378 242 -660 10 -130 13 -140 32 -143 40 -6 45 16 34 149 -43 494
-258 819 -631 954 -81 29 -97 31 -105 11z"/>
<path d="M12894 2120 c-257 -47 -458 -235 -509 -477 -44 -208 3 -428 125 -581
174 -218 552 -287 835 -152 136 65 256 201 304 345 33 96 41 281 16 389 -47
216 -203 383 -420 452 -90 29 -260 40 -351 24z m299 -127 c163 -48 279 -163
329 -328 26 -84 31 -248 9 -335 -43 -170 -162 -299 -331 -356 -84 -29 -273
-27 -361 4 -204 70 -321 233 -335 465 -19 301 150 524 430 568 67 10 194 1
259 -18z"/>
<path d="M15951 2120 c-203 -43 -359 -157 -443 -323 -92 -182 -92 -442 0 -624
71 -139 200 -248 355 -300 73 -24 97 -27 217 -27 151 0 221 14 328 67 70 34
149 100 195 162 l29 40 -5 -175 c-6 -200 -21 -267 -82 -356 -77 -111 -199
-164 -400 -171 -167 -7 -298 15 -447 72 -16 6 -18 0 -18 -52 l0 -59 68 -21
c127 -40 183 -48 362 -48 153 0 185 3 255 23 205 59 321 177 382 387 15 54 17
130 21 718 l3 657 -70 0 -71 0 0 -111 0 -111 -64 68 c-118 128 -251 182 -456
189 -63 2 -135 0 -159 -5z m316 -126 c142 -37 268 -140 329 -267 l35 -75 -3
-179 c-3 -173 -4 -180 -32 -238 -40 -82 -142 -181 -228 -223 -178 -87 -406
-79 -559 18 -314 202 -318 700 -6 901 130 84 297 107 464 63z"/>
<path d="M11560 1485 l0 -605 65 0 65 0 0 388 0 388 26 52 c79 158 234 247
467 268 l77 7 0 53 0 54 -57 0 c-84 0 -231 -33 -305 -68 -72 -35 -138 -88
-179 -145 l-29 -40 0 126 0 127 -65 0 -65 0 0 -605z"/>
<path d="M14000 1651 c0 -402 2 -444 19 -500 63 -201 228 -311 471 -311 167 0
297 50 409 155 l71 67 0 -91 0 -91 70 0 70 0 0 605 0 605 -70 0 -70 0 0 -436
0 -436 -46 -59 c-83 -109 -189 -176 -309 -198 -171 -32 -340 11 -410 104 -15
18 -36 58 -48 87 -21 51 -22 68 -25 496 l-3 442 -65 0 -64 0 0 -439z"/>
<path d="M2221 1397 l-1 -268 -77 64 c-154 124 -246 176 -351 198 -108 22
-193 -15 -253 -110 -32 -50 -63 -140 -74 -214 l-7 -47 35 0 c33 0 35 2 40 43
16 114 66 208 130 247 50 31 137 27 215 -10 77 -36 184 -116 283 -210 69 -65
77 -70 119 -70 l45 0 -6 192 c-7 205 -22 288 -73 400 l-24 53 -1 -268z"/>
</g>
</svg>
